<svg fill="#000000" xmlns="http://www.w3.org/2000/svg"  viewBox="0 0 26 26" width="26px" height="26px"><path fill-rule="evenodd" d="M21.271,0H5.463C2.66,0,0,2.198,0,4.999v15.812C0,23.612,2.66,26,5.463,26h15.809C24.074,26,26,23.612,26,20.812V4.999C26,2.198,24.074,0,21.271,0z M20.312,15.008c1.423,1.321,1.719,1.964,1.767,2.044c0.59,0.978-0.653,1.055-0.653,1.055l-2.376,0.033c0,0-0.512,0.101-1.184-0.361c-0.889-0.609-1.726-2.195-2.38-1.988c-0.662,0.21-0.642,1.637-0.642,1.637s0.005,0.252-0.145,0.415C14.534,18.017,14.213,18,14.213,18h-1.064c0,0-2.347,0.194-4.414-1.958c-2.254-2.347-4.244-6.977-4.244-6.977s-0.114-0.292,0.01-0.44c0.141-0.166,0.523-0.17,0.523-0.17l2.542-0.013c0,0,0.239,0.041,0.411,0.167c0.142,0.103,0.221,0.299,0.221,0.299s0.411,1.04,0.955,1.98c1.062,1.835,1.557,2.237,1.917,2.04c0.526-0.287,0.368-2.594,0.368-2.594s0.01-0.838-0.265-1.211c-0.212-0.289-0.612-0.374-0.789-0.397c-0.144-0.019,0.091-0.351,0.396-0.501C11.237,8.003,12.045,7.99,13,8c0.743,0.007,0.958,0.054,1.248,0.124c0.877,0.211,0.579,1.029,0.579,2.989c0,0.628-0.113,1.511,0.34,1.804c0.195,0.126,0.672,0.019,1.862-2.004c0.565-0.959,0.988-2.086,0.988-2.086s0.093-0.201,0.236-0.287C18.401,8.452,18.6,8.479,18.6,8.479l2.676-0.017c0,0,0.804-0.096,0.934,0.267c0.137,0.381-0.301,1.27-1.394,2.727C19.021,13.849,18.821,13.625,20.312,15.008z" clip-rule="evenodd"/></svg>